<?xml version="1.0" encoding="utf-8"?>
<!-- Generator: Adobe Illustrator 26.2.0, SVG Export Plug-In . SVG Version: 6.00 Build 0)  -->
<svg version="1.1" xmlns="http://www.w3.org/2000/svg" xmlns:xlink="http://www.w3.org/1999/xlink" x="0px" y="0px"
	 viewBox="0 0 25.85 20.52" style="enable-background:new 0 0 25.85 20.52;" xml:space="preserve">
<style type="text/css">
	.st0{fill:#FFFFFF;}
	.st1{fill:none;}
</style>
<g id="Layer_1">
	<path class="st0" d="M17.78,1.98C16.46,0.67,14.83,0,12.9,0S9.34,0.67,8.02,1.98C6.71,3.3,6.05,4.92,6.05,6.86
		c0,1.93,0.66,3.56,1.97,4.87c1.32,1.32,2.95,1.98,4.88,1.98s3.56-0.66,4.88-1.98c1.31-1.31,1.97-2.94,1.97-4.87
		C19.75,4.92,19.09,3.3,17.78,1.98z M17.78,1.98C16.46,0.67,14.83,0,12.9,0S9.34,0.67,8.02,1.98C6.71,3.3,6.05,4.92,6.05,6.86
		c0,1.93,0.66,3.56,1.97,4.87c1.32,1.32,2.95,1.98,4.88,1.98s3.56-0.66,4.88-1.98c1.31-1.31,1.97-2.94,1.97-4.87
		C19.75,4.92,19.09,3.3,17.78,1.98z M17.78,1.98C16.46,0.67,14.83,0,12.9,0S9.34,0.67,8.02,1.98C6.71,3.3,6.05,4.92,6.05,6.86
		c0,1.93,0.66,3.56,1.97,4.87c1.32,1.32,2.95,1.98,4.88,1.98s3.56-0.66,4.88-1.98c1.31-1.31,1.97-2.94,1.97-4.87
		C19.75,4.92,19.09,3.3,17.78,1.98z M17.78,1.98C16.46,0.67,14.83,0,12.9,0S9.34,0.67,8.02,1.98C6.71,3.3,6.05,4.92,6.05,6.86
		c0,1.93,0.66,3.56,1.97,4.87c1.32,1.32,2.95,1.98,4.88,1.98s3.56-0.66,4.88-1.98c1.31-1.31,1.97-2.94,1.97-4.87
		C19.75,4.92,19.09,3.3,17.78,1.98z"/>
	<path class="st0" d="M0,20.52c2.1-1.47,4.18-2.6,6.25-3.37c2.07-0.79,4.28-1.18,6.65-1.18s4.59,0.39,6.67,1.18
		c2.09,0.77,4.18,1.9,6.28,3.37H0z"/>
	<polyline class="st1" points="-4.75,21.54 -1.77,21.54 1.83,21.54 7.91,21.54 21.55,21.54 27.68,21.54 31.23,21.54 34.73,21.54 	
		"/>
</g>
<g id="Layer_2">
</g>
</svg>
