<?xml version="1.0" encoding="utf-8"?>
<!-- Generator: Adobe Illustrator 26.2.0, SVG Export Plug-In . SVG Version: 6.00 Build 0)  -->
<svg version="1.1" id="Layer_1" xmlns="http://www.w3.org/2000/svg" xmlns:xlink="http://www.w3.org/1999/xlink" x="0px" y="0px"
	 viewBox="0 0 40.05 35.95" style="enable-background:new 0 0 40.05 35.95;" xml:space="preserve">
<style type="text/css">
	.st0{fill:#37B34A;}
</style>
<path class="st0" d="M1.72,34.38C0.57,33.33,0,32.1,0,30.7c0.07-0.57,0.1-0.85,0.1-0.85l0.8-4.5c0.23-1.33,0.69-2.3,1.38-2.9
	c0.68-0.6,1.53-0.87,2.53-0.8c1.07,0.07,2.02,0.1,2.88,0.1s1.71-0.03,2.58-0.1c0.83-0.07,1.48,0.01,1.95,0.23
	c0.47,0.22,0.85,0.62,1.15,1.23l2.3,4.65c2.7-0.8,5.47-2.29,8.32-4.48s5.08-4.44,6.68-6.77l-3.9-3.8c-0.57-0.57-0.91-1.16-1.03-1.78
	S25.7,9.65,26,8.95c0.33-0.83,0.62-1.78,0.88-2.85S27.35,4,27.55,3c0.2-0.97,0.55-1.71,1.05-2.22C29.1,0.26,29.8,0,30.7,0l4.65,0
	c1.5,0,2.66,0.5,3.48,1.5c0.82,1,1.22,2.23,1.22,3.7c0,4.4-0.92,8.47-2.78,12.22c-1.85,3.75-4.33,7-7.45,9.75s-6.7,4.9-10.75,6.45
	S10.8,35.95,6.4,35.95C4.43,35.95,2.88,35.42,1.72,34.38z"/>
</svg>
