<?xml version="1.0" encoding="utf-8"?>
<!-- Generator: Adobe Illustrator 26.2.0, SVG Export Plug-In . SVG Version: 6.00 Build 0)  -->
<svg version="1.1" id="Layer_1" xmlns="http://www.w3.org/2000/svg" xmlns:xlink="http://www.w3.org/1999/xlink" x="0px" y="0px"
	 viewBox="0 0 40 40" style="enable-background:new 0 0 40 40;" xml:space="preserve">
<style type="text/css">
	.st0{fill:#FFFFFF;}
</style>
<path class="st0" d="M24.6,15.4c-1.27-1.27-2.8-1.9-4.6-1.9s-3.33,0.63-4.6,1.9c-1.27,1.27-1.9,2.8-1.9,4.6s0.63,3.33,1.9,4.6
	c1.27,1.27,2.8,1.9,4.6,1.9s3.33-0.63,4.6-1.9c1.27-1.27,1.9-2.8,1.9-4.6S25.87,16.67,24.6,15.4z M22.48,22.48
	c-0.69,0.68-1.51,1.02-2.48,1.02s-1.79-0.34-2.48-1.02c-0.68-0.69-1.02-1.51-1.02-2.48s0.34-1.79,1.02-2.48
	c0.69-0.68,1.51-1.02,2.48-1.02s1.79,0.34,2.48,1.02c0.68,0.69,1.02,1.51,1.02,2.48S23.16,21.79,22.48,22.48z M24.6,15.4
	c-1.27-1.27-2.8-1.9-4.6-1.9s-3.33,0.63-4.6,1.9c-1.27,1.27-1.9,2.8-1.9,4.6s0.63,3.33,1.9,4.6c1.27,1.27,2.8,1.9,4.6,1.9
	s3.33-0.63,4.6-1.9c1.27-1.27,1.9-2.8,1.9-4.6S25.87,16.67,24.6,15.4z M22.48,22.48c-0.69,0.68-1.51,1.02-2.48,1.02
	s-1.79-0.34-2.48-1.02c-0.68-0.69-1.02-1.51-1.02-2.48s0.34-1.79,1.02-2.48c0.69-0.68,1.51-1.02,2.48-1.02s1.79,0.34,2.48,1.02
	c0.68,0.69,1.02,1.51,1.02,2.48S23.16,21.79,22.48,22.48z M24.6,15.4c-1.27-1.27-2.8-1.9-4.6-1.9s-3.33,0.63-4.6,1.9
	c-1.27,1.27-1.9,2.8-1.9,4.6s0.63,3.33,1.9,4.6c1.27,1.27,2.8,1.9,4.6,1.9s3.33-0.63,4.6-1.9c1.27-1.27,1.9-2.8,1.9-4.6
	S25.87,16.67,24.6,15.4z M22.48,22.48c-0.69,0.68-1.51,1.02-2.48,1.02s-1.79-0.34-2.48-1.02c-0.68-0.69-1.02-1.51-1.02-2.48
	s0.34-1.79,1.02-2.48c0.69-0.68,1.51-1.02,2.48-1.02s1.79,0.34,2.48,1.02c0.68,0.69,1.02,1.51,1.02,2.48S23.16,21.79,22.48,22.48z
	 M24.6,15.4c-1.27-1.27-2.8-1.9-4.6-1.9s-3.33,0.63-4.6,1.9c-1.27,1.27-1.9,2.8-1.9,4.6s0.63,3.33,1.9,4.6
	c1.27,1.27,2.8,1.9,4.6,1.9s3.33-0.63,4.6-1.9c1.27-1.27,1.9-2.8,1.9-4.6S25.87,16.67,24.6,15.4z M22.48,22.48
	c-0.69,0.68-1.51,1.02-2.48,1.02s-1.79-0.34-2.48-1.02c-0.68-0.69-1.02-1.51-1.02-2.48s0.34-1.79,1.02-2.48
	c0.69-0.68,1.51-1.02,2.48-1.02s1.79,0.34,2.48,1.02c0.68,0.69,1.02,1.51,1.02,2.48S23.16,21.79,22.48,22.48z M34.72,21.05
	c0.02-0.37,0.03-0.72,0.03-1.05s-0.01-0.69-0.03-1.08c-0.01-0.38-0.05-0.74-0.12-1.07L40,14l-4.65-8.2l-5.9,2.7
	c-0.5-0.47-1.11-0.89-1.83-1.27c-0.71-0.39-1.39-0.7-2.02-0.93l-1-6.3h-9.2l-1,6.35c-0.63,0.2-1.3,0.5-2,0.9
	c-0.7,0.4-1.32,0.82-1.85,1.25l-5.9-2.7L0,14l5.4,3.95c-0.07,0.3-0.11,0.64-0.13,1.03C5.26,19.36,5.25,19.7,5.25,20
	s0.01,0.64,0.02,1.02c0.02,0.39,0.06,0.73,0.13,1.03L0,26l4.65,8.2l5.9-2.7c0.53,0.43,1.15,0.85,1.85,1.25c0.7,0.4,1.37,0.72,2,0.95
	l1,6.3h9.2l1-6.3c0.67-0.2,1.34-0.51,2.02-0.92c0.69-0.42,1.3-0.85,1.83-1.28l5.9,2.7L40,26l-5.4-3.9
	C34.67,21.77,34.71,21.42,34.72,21.05z M36,26.8l-2,3.6l-5.3-2.3c-0.8,0.8-1.69,1.48-2.68,2.05c-0.98,0.57-2.02,0.98-3.12,1.25
	L22.2,37h-4.4l-0.7-5.6c-1.1-0.27-2.14-0.68-3.12-1.25c-0.99-0.57-1.88-1.25-2.68-2.05L6,30.4l-2-3.6l4.7-3.45
	c-0.13-0.57-0.24-1.12-0.32-1.68c-0.09-0.55-0.13-1.1-0.13-1.67s0.04-1.12,0.13-1.67c0.08-0.56,0.19-1.11,0.32-1.68L4,13.2l2-3.6
	l5.3,2.3c0.77-0.83,1.64-1.53,2.62-2.1c0.99-0.57,2.05-0.97,3.18-1.2L17.8,3h4.4l0.7,5.6c1.17,0.17,2.23,0.54,3.2,1.13
	c0.97,0.58,1.83,1.3,2.6,2.17L34,9.6l2,3.6l-4.7,3.45c0.17,0.57,0.28,1.12,0.35,1.68c0.07,0.55,0.1,1.1,0.1,1.67
	s-0.04,1.12-0.13,1.67c-0.08,0.56-0.19,1.11-0.32,1.68L36,26.8z M20,13.5c-1.8,0-3.33,0.63-4.6,1.9c-1.27,1.27-1.9,2.8-1.9,4.6
	s0.63,3.33,1.9,4.6c1.27,1.27,2.8,1.9,4.6,1.9s3.33-0.63,4.6-1.9c1.27-1.27,1.9-2.8,1.9-4.6s-0.63-3.33-1.9-4.6
	C23.33,14.13,21.8,13.5,20,13.5z M22.48,22.48c-0.69,0.68-1.51,1.02-2.48,1.02s-1.79-0.34-2.48-1.02c-0.68-0.69-1.02-1.51-1.02-2.48
	s0.34-1.79,1.02-2.48c0.69-0.68,1.51-1.02,2.48-1.02s1.79,0.34,2.48,1.02c0.68,0.69,1.02,1.51,1.02,2.48S23.16,21.79,22.48,22.48z
	 M24.6,15.4c-1.27-1.27-2.8-1.9-4.6-1.9s-3.33,0.63-4.6,1.9c-1.27,1.27-1.9,2.8-1.9,4.6s0.63,3.33,1.9,4.6
	c1.27,1.27,2.8,1.9,4.6,1.9s3.33-0.63,4.6-1.9c1.27-1.27,1.9-2.8,1.9-4.6S25.87,16.67,24.6,15.4z M22.48,22.48
	c-0.69,0.68-1.51,1.02-2.48,1.02s-1.79-0.34-2.48-1.02c-0.68-0.69-1.02-1.51-1.02-2.48s0.34-1.79,1.02-2.48
	c0.69-0.68,1.51-1.02,2.48-1.02s1.79,0.34,2.48,1.02c0.68,0.69,1.02,1.51,1.02,2.48S23.16,21.79,22.48,22.48z M24.6,15.4
	c-1.27-1.27-2.8-1.9-4.6-1.9s-3.33,0.63-4.6,1.9c-1.27,1.27-1.9,2.8-1.9,4.6s0.63,3.33,1.9,4.6c1.27,1.27,2.8,1.9,4.6,1.9
	s3.33-0.63,4.6-1.9c1.27-1.27,1.9-2.8,1.9-4.6S25.87,16.67,24.6,15.4z M22.48,22.48c-0.69,0.68-1.51,1.02-2.48,1.02
	s-1.79-0.34-2.48-1.02c-0.68-0.69-1.02-1.51-1.02-2.48s0.34-1.79,1.02-2.48c0.69-0.68,1.51-1.02,2.48-1.02s1.79,0.34,2.48,1.02
	c0.68,0.69,1.02,1.51,1.02,2.48S23.16,21.79,22.48,22.48z"/>
<path class="st0" d="M31.62,21.67c0.09-0.55,0.13-1.1,0.13-1.67s-0.03-1.12-0.1-1.67c-0.07-0.56-0.18-1.11-0.35-1.68L36,13.2l-2-3.6
	l-5.3,2.3c-0.77-0.87-1.63-1.59-2.6-2.17c-0.97-0.59-2.03-0.96-3.2-1.13L22.2,3h-4.4l-0.7,5.6c-1.13,0.23-2.19,0.63-3.18,1.2
	c-0.98,0.57-1.85,1.27-2.62,2.1L6,9.6l-2,3.6l4.7,3.45c-0.13,0.57-0.24,1.12-0.32,1.68c-0.09,0.55-0.13,1.1-0.13,1.67
	s0.04,1.12,0.13,1.67c0.08,0.56,0.19,1.11,0.32,1.68L4,26.8l2,3.6l5.3-2.3c0.8,0.8,1.69,1.48,2.68,2.05
	c0.98,0.57,2.02,0.98,3.12,1.25l0.7,5.6h4.4l0.7-5.6c1.1-0.27,2.14-0.68,3.12-1.25c0.99-0.57,1.88-1.25,2.68-2.05l5.3,2.3l2-3.6
	l-4.7-3.45C31.43,22.78,31.54,22.23,31.62,21.67z M24.6,24.6c-1.27,1.27-2.8,1.9-4.6,1.9s-3.33-0.63-4.6-1.9
	c-1.27-1.27-1.9-2.8-1.9-4.6s0.63-3.33,1.9-4.6c1.27-1.27,2.8-1.9,4.6-1.9s3.33,0.63,4.6,1.9c1.27,1.27,1.9,2.8,1.9,4.6
	S25.87,23.33,24.6,24.6z"/>
</svg>
