<?xml version="1.0" encoding="utf-8"?>
<!-- Generator: Adobe Illustrator 26.2.0, SVG Export Plug-In . SVG Version: 6.00 Build 0)  -->
<svg version="1.1" id="Layer_1" xmlns="http://www.w3.org/2000/svg" xmlns:xlink="http://www.w3.org/1999/xlink" x="0px" y="0px"
	 viewBox="0 0 27 36" style="enable-background:new 0 0 27 36;" xml:space="preserve">
<style type="text/css">
	.st0{fill:#FF7F83;}
</style>
<path class="st0" d="M4.5,33h18l0,0l0,0V9h-18V33L4.5,33L4.5,33z M0,5V2h6.7l2-2h9.6l2,2H27v3H0z M4.5,36c-0.8,0-1.5-0.3-2.1-0.9
	c-0.6-0.6-0.9-1.3-0.9-2.1V6h24v27c0,0.8-0.3,1.5-0.9,2.1C24,35.7,23.3,36,22.5,36H4.5z M4.5,33h18l0,0l0,0H4.5L4.5,33L4.5,33z"/>
</svg>
